{
  "accessors": [
    {
      "bufferView": 2,
      "componentType": 5126,
      "count": 959,
      "max": [
        6.861698150634766,
        1.5384149551391602,
        0.12950842082500458
      ],
      "min": [
        -6.861698150634766,
        -1.011718511581421,
        -0.7611685991287231
      ],
      "type": "VEC3"
    },
    {
      "bufferView": 2,
      "byteOffset": 11508,
      "componentType": 5126,
      "count": 959,
      "max": [
        1.0,
        0.9999600648880005,
        0.9998270869255066
      ],
      "min": [
        -1.0,
        -1.0,
        -1.0
      ],
      "type": "VEC3"
    },
    {
      "bufferView": 1,
      "componentType": 5126,
      "count": 959,
      "max": [
        0.9995636940002441,
        0.9948843717575073
      ],
      "min": [
        0.0018616412999108434,
        0.027160201221704483
      ],
      "type": "VEC2"
    },
    {
      "bufferView": 0,
      "componentType": 5125,
      "count": 1728,
      "type": "SCALAR"
    },
    {
      "bufferView": 2,
      "byteOffset": 23016,
      "componentType": 5126,
      "count": 984,
      "max": [
        0.3731222152709961,
        -2.1936540603637695,
        1.0830280780792236
      ],
      "min": [
        -0.3731222152709961,
        -5.084580421447754,
        0.27870407700538635
      ],
      "type": "VEC3"
    },
    {
      "bufferView": 2,
      "byteOffset": 34824,
      "componentType": 5126,
      "count": 984,
      "max": [
        0.9999997615814209,
        1.0,
        0.9969934821128845
      ],
      "min": [
        -0.9999997615814209,
        -1.0,
        -0.9999881982803345
      ],
      "type": "VEC3"
    },
    {
      "bufferView": 1,
      "byteOffset": 7672,
      "componentType": 5126,
      "count": 984,
      "max": [
        0.9670066237449646,
        0.9826316833496094
      ],
      "min": [
        0.027284879237413406,
        0.04373418912291527
      ],
      "type": "VEC2"
    },
    {
      "bufferView": 0,
      "byteOffset": 6912,
      "componentType": 5125,
      "count": 2694,
      "type": "SCALAR"
    },
    {
      "bufferView": 2,
      "byteOffset": 46632,
      "componentType": 5126,
      "count": 1208,
      "max": [
        0.5731346607208252,
        6.306441307067871,
        0.9139041900634766
      ],
      "min": [
        -0.5731346607208252,
        -6.148655414581299,
        -0.6595434546470642
      ],
      "type": "VEC3"
    },
    {
      "bufferView": 2,
      "byteOffset": 61128,
      "componentType": 5126,
      "count": 1208,
      "max": [
        0.9999643564224243,
        1.0,
        1.0
      ],
      "min": [
        -0.9999605417251587,
        -0.9999984502792358,
        -0.9991872906684875
      ],
      "type": "VEC3"
    },
    {
      "bufferView": 1,
      "byteOffset": 15544,
      "componentType": 5126,
      "count": 1208,
      "max": [
        0.9714919924736023,
        0.96518874168396
      ],
      "min": [
        0.01691519096493721,
        0.016118129715323448
      ],
      "type": "VEC2"
    },
    {
      "bufferView": 0,
      "byteOffset": 17688,
      "componentType": 5125,
      "count": 4584,
      "type": "SCALAR"
    },
    {
      "bufferView": 2,
      "byteOffset": 75624,
      "componentType": 5126,
      "count": 8571,
      "max": [
        5.058436393737793,
        1.2160454988479614,
        -0.47901809215545654
      ],
      "min": [
        -5.0613579750061035,
        -1.8098007440567017,
        -1.3617370128631592
      ],
      "type": "VEC3"
    },
    {
      "bufferView": 2,
      "byteOffset": 178476,
      "componentType": 5126,
      "count": 8571,
      "max": [
        1.0,
        1.0,
        1.0
      ],
      "min": [
        -1.0,
        -1.0,
        -1.0
      ],
      "type": "VEC3"
    },
    {
      "bufferView": 1,
      "byteOffset": 25208,
      "componentType": 5126,
      "count": 8571,
      "max": [
        0.989030122756958,
        0.9940226674079895
      ],
      "min": [
        0.020299425348639488,
        0.012857921421527863
      ],
      "type": "VEC2"
    },
    {
      "bufferView": 0,
      "byteOffset": 36024,
      "componentType": 5125,
      "count": 24648,
      "type": "SCALAR"
    },
    {
      "bufferView": 2,
      "byteOffset": 281328,
      "componentType": 5126,
      "count": 793,
      "max": [
        2.327266216278076,
        6.27732515335083,
        1.7655489444732666
      ],
      "min": [
        -2.3270864486694336,
        4.478348255157471,
        -0.7516713738441467
      ],
      "type": "VEC3"
    },
    {
      "bufferView": 2,
      "byteOffset": 290844,
      "componentType": 5126,
      "count": 793,
      "max": [
        1.0,
        1.0,
        1.0
      ],
      "min": [
        -1.0,
        -1.0,
        -0.9999979138374329
      ],
      "type": "VEC3"
    },
    {
      "bufferView": 1,
      "byteOffset": 93776,
      "componentType": 5126,
      "count": 793,
      "max": [
        0.9797099232673645,
        0.9840256571769714
      ],
      "min": [
        0.01580868475139141,
        -0.4538133442401886
      ],
      "type": "VEC2"
    },
    {
      "bufferView": 0,
      "byteOffset": 134616,
      "componentType": 5125,
      "count": 1476,
      "type": "SCALAR"
    },
    {
      "bufferView": 2,
      "byteOffset": 300360,
      "componentType": 5126,
      "count": 7286,
      "max": [
        0.18730826675891876,
        -4.313851356506348,
        -0.00809388980269432
      ],
      "min": [
        -0.6156005859375,
        -6.3662543296813965,
        -0.8910032510757446
      ],
      "type": "VEC3"
    },
    {
      "bufferView": 2,
      "byteOffset": 387792,
      "componentType": 5126,
      "count": 7286,
      "max": [
        1.0,
        1.0,
        1.0
      ],
      "min": [
        -1.0,
        -1.0,
        -1.0
      ],
      "type": "VEC3"
    },
    {
      "bufferView": 1,
      "byteOffset": 100120,
      "componentType": 5126,
      "count": 7286,
      "max": [
        0.9907318353652954,
        0.98577880859375
      ],
      "min": [
        0.0116580193862319,
        0.01005001924932003
      ],
      "type": "VEC2"
    },
    {
      "bufferView": 0,
      "byteOffset": 140520,
      "componentType": 5125,
      "count": 19848,
      "type": "SCALAR"
    },
    {
      "bufferView": 2,
      "byteOffset": 475224,
      "componentType": 5126,
      "count": 3414,
      "max": [
        2.225783348083496,
        1.1411384344100952,
        -0.2963709831237793
      ],
      "min": [
        -2.233103036880493,
        -1.6981849670410156,
        -1.263901710510254
      ],
      "type": "VEC3"
    },
    {
      "bufferView": 2,
      "byteOffset": 516192,
      "componentType": 5126,
      "count": 3414,
      "max": [
        1.0,
        1.0,
        1.0
      ],
      "min": [
        -1.0,
        -1.0,
        -1.0
      ],
      "type": "VEC3"
    },
    {
      "bufferView": 1,
      "byteOffset": 158408,
      "componentType": 5126,
      "count": 3414,
      "max": [
        0.9612131714820862,
        0.9902841448783875
      ],
      "min": [
        0.025701964274048805,
        0.02708609215915203
      ],
      "type": "VEC2"
    },
    {
      "bufferView": 0,
      "byteOffset": 219912,
      "componentType": 5125,
      "count": 12816,
      "type": "SCALAR"
    },
    {
      "bufferView": 2,
      "byteOffset": 557160,
      "componentType": 5126,
      "count": 2376,
      "max": [
        1.747031569480896,
        3.988182783126831,
        1.1253336668014526
      ],
      "min": [
        -1.7398006916046143,
        1.2386335134506226,
        -0.14594636857509613
      ],
      "type": "VEC3"
    },
    {
      "bufferView": 2,
      "byteOffset": 585672,
      "componentType": 5126,
      "count": 2376,
      "max": [
        1.0,
        0.998647928237915,
        0.9986478090286255
      ],
      "min": [
        -1.0,
        -0.9976845383644104,
        -0.9986478090286255
      ],
      "type": "VEC3"
    },
    {
      "bufferView": 1,
      "byteOffset": 185720,
      "componentType": 5126,
      "count": 2376,
      "max": [
        0.9922011494636536,
        0.9864304065704346
      ],
      "min": [
        0.012578723020851612,
        0.017505185678601265
      ],
      "type": "VEC2"
    },
    {
      "bufferView": 0,
      "byteOffset": 271176,
      "componentType": 5125,
      "count": 7980,
      "type": "SCALAR"
    }
  ],
  "asset": {
    "extras": {
      "author": "perceval-66 (https://sketchfab.com/perceval-66)",
      "license": "CC-BY-4.0 (http://creativecommons.org/licenses/by/4.0/)",
      "source": "https://sketchfab.com/3d-models/a-10-thunderbold-4b22d832e74c4b9eb00df5b4db19f3cf",
      "title": "A-10 Thunderbold"
    },
    "generator": "Sketchfab-12.66.0",
    "version": "2.0"
  },
  "bufferViews": [
    {
      "buffer": 0,
      "byteLength": 303096,
      "name": "floatBufferViews",
      "target": 34963
    },
    {
      "buffer": 0,
      "byteLength": 204728,
      "byteOffset": 303096,
      "byteStride": 8,
      "name": "floatBufferViews",
      "target": 34962
    },
    {
      "buffer": 0,
      "byteLength": 614184,
      "byteOffset": 507824,
      "byteStride": 12,
      "name": "floatBufferViews",
      "target": 34962
    }
  ],
  "buffers": [
    {
      "byteLength": 1122008,
      "uri": "scene.bin"
    }
  ],
  "images": [
    {
      "uri": "textures/Munitions_auv_baseColor.png"
    },
    {
      "uri": "textures/Munitions_auv_metallicRoughness.png"
    },
    {
      "uri": "textures/Cockpit_auv_baseColor.png"
    },
    {
      "uri": "textures/Cockpit_auv_metallicRoughness.png"
    },
    {
      "uri": "textures/Radar_auv_baseColor.png"
    },
    {
      "uri": "textures/Radar_auv_metallicRoughness.png"
    },
    {
      "uri": "textures/Roues_auv_baseColor.png"
    },
    {
      "uri": "textures/Roues_auv_metallicRoughness.png"
    },
    {
      "uri": "textures/Queue_auv_baseColor.png"
    },
    {
      "uri": "textures/Queue_auv_metallicRoughness.png"
    },
    {
      "uri": "textures/Ailes_auv_baseColor.png"
    },
    {
      "uri": "textures/Ailes_auv_metallicRoughness.png"
    },
    {
      "uri": "textures/Fuselage_auv_baseColor.png"
    },
    {
      "uri": "textures/Fuselage_auv_metallicRoughness.png"
    },
    {
      "uri": "textures/Turbine_auv_baseColor.png"
    },
    {
      "uri": "textures/Turbine_auv_metallicRoughness.png"
    }
  ],
  "materials": [
    {
      "doubleSided": true,
      "name": "Munitions_auv",
      "pbrMetallicRoughness": {
        "baseColorFactor": [
          0.877,
          0.877,
          0.877,
          1.0
        ],
        "baseColorTexture": {
          "index": 0
        },
        "metallicFactor": 0.61,
        "metallicRoughnessTexture": {
          "index": 1
        },
        "roughnessFactor": 0.58
      }
    },
    {
      "doubleSided": true,
      "name": "Cockpit_auv",
      "pbrMetallicRoughness": {
        "baseColorFactor": [
          0.877,
          0.877,
          0.877,
          1.0
        ],
        "baseColorTexture": {
          "index": 2
        },
        "metallicFactor": 0.61,
        "metallicRoughnessTexture": {
          "index": 3
        },
        "roughnessFactor": 0.58
      }
    },
    {
      "doubleSided": true,
      "name": "Radar_auv",
      "pbrMetallicRoughness": {
        "baseColorFactor": [
          0.877,
          0.877,
          0.877,
          1.0
        ],
        "baseColorTexture": {
          "index": 4
        },
        "metallicFactor": 0.61,
        "metallicRoughnessTexture": {
          "index": 5
        },
        "roughnessFactor": 0.58
      }
    },
    {
      "doubleSided": true,
      "name": "Roues_auv",
      "pbrMetallicRoughness": {
        "baseColorFactor": [
          0.877,
          0.877,
          0.877,
          1.0
        ],
        "baseColorTexture": {
          "index": 6
        },
        "metallicFactor": 0.61,
        "metallicRoughnessTexture": {
          "index": 7
        },
        "roughnessFactor": 0.58
      }
    },
    {
      "doubleSided": true,
      "name": "Queue_auv",
      "pbrMetallicRoughness": {
        "baseColorFactor": [
          0.877,
          0.877,
          0.877,
          1.0
        ],
        "baseColorTexture": {
          "index": 8
        },
        "metallicFactor": 0.61,
        "metallicRoughnessTexture": {
          "index": 9
        },
        "roughnessFactor": 0.58
      }
    },
    {
      "doubleSided": true,
      "name": "Ailes_auv",
      "pbrMetallicRoughness": {
        "baseColorFactor": [
          0.8772549842219507,
          0.8772549842219507,
          0.8772549842219507,
          1.0
        ],
        "baseColorTexture": {
          "index": 10
        },
        "metallicFactor": 0.6097273650353562,
        "metallicRoughnessTexture": {
          "index": 11
        },
        "roughnessFactor": 0.58
      }
    },
    {
      "doubleSided": true,
      "name": "Fuselage_auv",
      "pbrMetallicRoughness": {
        "baseColorFactor": [
          0.877,
          0.877,
          0.877,
          1.0
        ],
        "baseColorTexture": {
          "index": 12
        },
        "metallicFactor": 0.61,
        "metallicRoughnessTexture": {
          "index": 13
        },
        "roughnessFactor": 0.68
      }
    },
    {
      "doubleSided": true,
      "name": "Turbine_auv",
      "pbrMetallicRoughness": {
        "baseColorFactor": [
          0.877,
          0.877,
          0.877,
          1.0
        ],
        "baseColorTexture": {
          "index": 14
        },
        "metallicFactor": 0.61,
        "metallicRoughnessTexture": {
          "index": 15
        },
        "roughnessFactor": 0.58
      }
    }
  ],
  "meshes": [
    {
      "name": "Object_0",
      "primitives": [
        {
          "attributes": {
            "NORMAL": 1,
            "POSITION": 0,
            "TEXCOORD_0": 2
          },
          "indices": 3,
          "material": 5,
          "mode": 4
        }
      ]
    },
    {
      "name": "Object_1",
      "primitives": [
        {
          "attributes": {
            "NORMAL": 5,
            "POSITION": 4,
            "TEXCOORD_0": 6
          },
          "indices": 7,
          "material": 1,
          "mode": 4
        }
      ]
    },
    {
      "name": "Object_2",
      "primitives": [
        {
          "attributes": {
            "NORMAL": 9,
            "POSITION": 8,
            "TEXCOORD_0": 10
          },
          "indices": 11,
          "material": 6,
          "mode": 4
        }
      ]
    },
    {
      "name": "Object_3",
      "primitives": [
        {
          "attributes": {
            "NORMAL": 13,
            "POSITION": 12,
            "TEXCOORD_0": 14
          },
          "indices": 15,
          "material": 0,
          "mode": 4
        }
      ]
    },
    {
      "name": "Object_4",
      "primitives": [
        {
          "attributes": {
            "NORMAL": 17,
            "POSITION": 16,
            "TEXCOORD_0": 18
          },
          "indices": 19,
          "material": 4,
          "mode": 4
        }
      ]
    },
    {
      "name": "Object_5",
      "primitives": [
        {
          "attributes": {
            "NORMAL": 21,
            "POSITION": 20,
            "TEXCOORD_0": 22
          },
          "indices": 23,
          "material": 2,
          "mode": 4
        }
      ]
    },
    {
      "name": "Object_6",
      "primitives": [
        {
          "attributes": {
            "NORMAL": 25,
            "POSITION": 24,
            "TEXCOORD_0": 26
          },
          "indices": 27,
          "material": 3,
          "mode": 4
        }
      ]
    },
    {
      "name": "Object_7",
      "primitives": [
        {
          "attributes": {
            "NORMAL": 29,
            "POSITION": 28,
            "TEXCOORD_0": 30
          },
          "indices": 31,
          "material": 7,
          "mode": 4
        }
      ]
    }
  ],
  "nodes": [
    {
      "children": [
        1
      ],
      "matrix": [
        0.9852023124694824,
        0.0,
        0.0,
        0.0,
        0.0,
        2.1875885824351347e-16,
        -0.9852023124694824,
        0.0,
        0.0,
        0.9852023124694824,
        2.1875885824351347e-16,
        0.0,
        0.0,
        0.0,
        0.0,
        1.0
      ],
      "name": "Sketchfab_model"
    },
    {
      "children": [
        2,
        3,
        4,
        5,
        6,
        7,
        8,
        9
      ],
      "name": "e2c4fd51bce04f6fb39b0e43a1967866.3ds"
    },
    {
      "mesh": 0,
      "name": "Object_2"
    },
    {
      "mesh": 1,
      "name": "Object_3"
    },
    {
      "mesh": 2,
      "name": "Object_4"
    },
    {
      "mesh": 3,
      "name": "Object_5"
    },
    {
      "mesh": 4,
      "name": "Object_6"
    },
    {
      "mesh": 5,
      "name": "Object_7"
    },
    {
      "mesh": 6,
      "name": "Object_8"
    },
    {
      "mesh": 7,
      "name": "Object_9"
    }
  ],
  "samplers": [
    {
      "magFilter": 9729,
      "minFilter": 9987,
      "wrapS": 10497,
      "wrapT": 10497
    },
    {
      "magFilter": 9728,
      "minFilter": 9986,
      "wrapS": 33071,
      "wrapT": 33071
    }
  ],
  "scene": 0,
  "scenes": [
    {
      "name": "Sketchfab_Scene",
      "nodes": [
        0
      ]
    }
  ],
  "textures": [
    {
      "sampler": 0,
      "source": 0
    },
    {
      "sampler": 0,
      "source": 1
    },
    {
      "sampler": 0,
      "source": 2
    },
    {
      "sampler": 0,
      "source": 3
    },
    {
      "sampler": 0,
      "source": 4
    },
    {
      "sampler": 0,
      "source": 5
    },
    {
      "sampler": 0,
      "source": 6
    },
    {
      "sampler": 0,
      "source": 7
    },
    {
      "sampler": 0,
      "source": 8
    },
    {
      "sampler": 0,
      "source": 9
    },
    {
      "sampler": 0,
      "source": 10
    },
    {
      "sampler": 0,
      "source": 11
    },
    {
      "sampler": 1,
      "source": 12
    },
    {
      "sampler": 0,
      "source": 13
    },
    {
      "sampler": 0,
      "source": 14
    },
    {
      "sampler": 0,
      "source": 15
    }
  ]
}
